/* XPM */
static char *bitcoin64[] = {
/* columns rows colors chars-per-pixel */
"64 64 53 1 ",
"  c #06375C",
". c #06395E",
"X c #073D61",
"o c #083F63",
"O c #084266",
"+ c #094669",
"@ c #0A4B6D",
"# c #0B4F70",
"$ c #0C5475",
"% c #0D5778",
"& c #0D5B7B",
"* c #0E617F",
"= c #0F6382",
"- c #106685",
"; c #106986",
": c #116D8A",
"> c #12718E",
", c #137691",
"< c #147A95",
"1 c #157E99",
"2 c #16839D",
"3 c #1786A0",
"4 c #178AA2",
"5 c #188DA5",
"6 c #1890A7",
"7 c #1994AB",
"8 c #1A99AE",
"9 c #1B9DB2",
"0 c #1CA1B6",
"q c #1DA5B9",
"w c #1EABBE",
"e c #1FAEC0",
"r c #1FB1C3",
"t c #20AFC3",
"y c #20B4C5",
"u c #21B7C8",
"i c #22BBCC",
"p c #23BFD0",
"a c #23C1CF",
"s c #24C4D2",
"d c #25C9D6",
"f c #26CEDA",
"g c #27D2DD",
"h c #28D5DF",
"j c #27D5E0",
"k c #28D6E1",
"l c #29DCE5",
"z c #2ADEE8",
"x c #2BE4EC",
"c c #2CE8EF",
"v c #2CE7F0",
"b c #2DE9F1",
"n c None",
/* pixels */
"nnnnnnnnnnnnnnnnnnnnnnnnnnnnnnnnnnnnnnnnnnnnnnnnnnnnnnnnnnnnnnnn",
"nnnnnnnnnnnnnnnnnnnnnnnnnnnnnnnnnnnnnnnnnnnnnnnnnnnnnnnnnnnnnnnn",
"nnnnnnnnnnnnnnnnnnnnnnnnnnn                   nnnnnnnnnnnnnnnnnn",
"nnnnnnnnnnnnnnnnn.         .                   nnnnnnnnnnnnnnnnn",
"nnnnnnnnnnnnnnnn                  .OO+@$$&*$   nnnnnnnnnnnnnnnnn",
"nnnnnnnnnnnnnnn   X++#$**;><<25680qqwrwwwwwi*   nnnnnnnnnnnnnnnn",
"nnnnnnnnnnnnnnn  X6rwwwwq088522,>:*&$#@@OO.<u%   nnnnnnnnnnnnnnn",
"nnnnnnnnnnnnnn   ,i*#+OXo                   2y#   nnnnnnnnnnnnnn",
"nnnnnnnnnnnnn   $i;      .            .     .6w+   nnnnnnnnnnnnn",
"nnnnnnnnnnnn   Ow6.                      .   X00O   nnnnnnnnnnnn",
"nnnnnnnnnnnn   4wO .       . .       . .      +q8X   nnnnnnnnnnn",
"nnnnnnnnnnn   =i%        .                .    @w4X   nnnnnnnnnn",
"nnnnnnnnnn   @u<    .     .        .     .    . $u2    nnnnnnnnn",
"nnnnnnnnnn  .90.       .                   . .   %i>    nnnnnnnn",
"nnnnnnnnn   ,u@ .       ....   .       .      .   =i;   nnnnnnnn",
"nnnnnnnn   $a;     .   ..2wq6;+   . .    .         >i&   nnnnnnn",
"nnnnnnn   ow4      .  .  6ccxlr,.   .     .  .      2u$   nnnnnn",
"nnnnnnn   4tO . .        2xcxxxl8+                  .2r@   nnnnn",
"nnnnnn   ;i%             &8qaxxxx9.      .      .    .7q+   nnnn",
"nnnnn   @u<       .    .   .+<dxxx2        .          O09O  .nnn",
"nnnnn  o99o X       .         &sxxd#        ..         +q7.  .nn",
"nnnn   ,u@             . .+.   :hxx2    +%*$+.       .  @y4.  .n",
"nnn   %a;        Oo     $qsw$   wxxq .;0shhhsq>O     .   %y<.  n",
"nn   Ot5X       oqy9&  owcxcrO  5xxa*0xcxxxxxxxw&         :yO .n",
"nn  X4tO        Oscc2  #fxxxh%  2xxhdxxxclhlcxxxd-   .    -q.. n",
"n   -p%         Oixc4  opvxcs@  2xxzxxxd2*&=2axxx7o       27  .n",
"n   97   X      XwcxwX  :dld,  .0xxxxz0#     @8g6+     .  72 .nn",
"nn  1q        X  2xxj=   @=@   %fxxxxwO       O&    .    .q:  nn",
"nn  %i@          #fvcy@       +wxzxxg*   %>*.            @y$  nn",
"nn  oy:      X    6xxxr%     $qxxxxxw.  <gxk2.           %r+  nn",
"nn   68           +ycxcg0<:,8gxxxxxx4  Oscxxh$           ;q.  nn",
"nnn  ;uo           #rcxxcxxzxxxxxxxx4  @dxxch$           27   nn",
"nnn  @i&      .     @7jxxxxxxxxxlxxx8  X0xccwO           82  nnn",
"nnn   q2 .            4xxxxxkfhzxxxxa+  +6r7#           Xw*  nnn",
"nnnn  1w. . .        %fxxxy,$@#,wxxxx2    .    %+  .    @r%  nnn",
"nnnn  %i#      ..   owbxz5O     +6lxxh>       -du*.     &w+  nnn",
"nnnn  oy:   .       -lxx9.       .7xxxh7$O O$2gxcd$ .   >q   nnn",
"nnnn   59           8bvf#  o:5:X  @dxxxxhuwugxxcx6X     46   nnn",
"nnnnn  -io         oibb0   5zvx5   8xxxxxxcxcxch2o     .9<  nnnn",
"nnnnn  +i*   .     Osbb2  #fvxvf#  2xxxhxxcxxhw*.   .  oe=  nnnn",
"nnnnn  .03       . +sbb3  #gvvvk$  2xcs*,676,&.        +y#  nnnn",
"nnnnnn  ,tX        oibb9  X8vvv9.  7cciX      .        =to  nnnn",
"nnnnnn  #p#      .  9bbd@  o1q1+  +acc9    .  .        >9   nnnn",
"nnnnnn  Xt,         :zf2o         4cxx: .       X    XX65   nnnn",
"nnnnnn   39         O<#         .2lccr+     .         X9,  nnnnn",
"nnnnnnn  -u+        X         X-qzccl:         .      Xt&  nnnnn",
"nnnnnnn. +u=             X    &kcbbz2      .          %u#  nnnnn",
"nnnnnnn  X94     X            #fbbg,    .    .      o<p8X  nnnnn",
"nnnnnnnn  ,yX            .    oyf8% .             X-yy:X   nnnnn",
"nnnnnnnn  #a8&X                $#               X=tu<O    nnnnnn",
"nnnnnnnn   *9pw>+          .                   %9i3+     nnnnnnn",
"nnnnnnnn     #2ui5$     .          .         #7p8# X . nnnnnnnnn",
"nnnnnnnnnn     o;qaq:o                     +3pq&X    nnnnnnnnnnn",
"nnnnnnnnnnnn      %5iy2#                 o<it-X   Xnnnnnnnnnnnnn",
"nnnnnnnnnnnnnn      +,wp9-X            .:tu,o    nnnnnnnnnnnnnnn",
"nnnnnnnnnnnnnnnnn     .*8it<@   X     *wp2+  . nnnnnnnnnnnnnnnnn",
"nnnnnnnnnnnnnnnnnnn      +1yi7&X    $9s7@     nnnnnnnnnnnnnnnnnn",
"nnnnnnnnnnnnnnnnnnnnnn .   o-0pw>O@5p9$  X  nnnnnnnnnnnnnnnnnnnn",
"nnnnnnnnnnnnnnnnnnnnnnnn      #2uipw=X    nnnnnnnnnnnnnnnnnnnnnn",
"nnnnnnnnnnnnnnnnnnnnnnnnnn      O::X    nnnnnnnnnnnnnnnnnnnnnnnn",
"nnnnnnnnnnnnnnnnnnnnnnnnnnnnn  .      nnnnnnnnnnnnnnnnnnnnnnnnnn",
"nnnnnnnnnnnnnnnnnnnnnnnnnnnnnnn      nnnnnnnnnnnnnnnnnnnnnnnnnnn",
"nnnnnnnnnnnnnnnnnnnnnnnnnnnnnnnnnn nnnnnnnnnnnnnnnnnnnnnnnnnnnnn",
"nnnnnnnnnnnnnnnnnnnnnnnnnnnnnnnnnnnnnnnnnnnnnnnnnnnnnnnnnnnnnnnn"
};
