/* XPM */
static char *bitcoin128[] = {
/* columns rows colors chars-per-pixel */
"128 128 56 1 ",
"  c #06375C",
". c #06395E",
"X c #073D62",
"o c #074165",
"O c #084266",
"+ c #084569",
"@ c #094A6D",
"# c #0A4E71",
"$ c #0B5375",
"% c #0C5678",
"& c #0C5B7C",
"* c #0D607F",
"= c #0E5F80",
"- c #0E6383",
"; c #0F6887",
": c #0F6A89",
"> c #106887",
", c #106C8B",
"< c #11718E",
"1 c #127491",
"2 c #137A95",
"3 c #147D99",
"4 c #15839D",
"5 c #1686A0",
"6 c #178BA4",
"7 c #188DA6",
"8 c #188FA8",
"9 c #1993AB",
"0 c #1A98AE",
"q c #1A97B0",
"w c #1A9CB2",
"e c #1BA1B6",
"r c #1CA5BA",
"t c #1EAABE",
"y c #1EADC1",
"u c #1FB2C4",
"i c #20AFC4",
"p c #20B4C6",
"a c #20B6C8",
"s c #21BBCC",
"d c #23BFD1",
"f c #22C0CF",
"g c #24C4D3",
"h c #24C9D6",
"j c #26CDDA",
"k c #27D2DE",
"l c #28D3DF",
"z c #27D4E0",
"x c #28D6E1",
"c c #29DBE5",
"v c #2ADEE8",
"b c #2BE4EC",
"n c #2CE8EF",
"m c #2CE7F0",
"M c #2DE9F1",
"N c None",
/* pixels */
"NNNNNNNNNNNNNNNNNNNNNNNNNNNNNNNNNNNNNNNNNNNNNNNNNNNNNNNNNNNNNNNNNNNNNNNNNNNNNNNNNNNNNNNNNNNNNNNNNNNNNNNNNNNNNNNNNNNNNNNNNNNNNNNN",
"NNNNNNNNNNNNNNNNNNNNNNNNNNNNNNNNNNNNNNNNNNNNNNNNNNNNNNNNNNNNNNNNNNNNNNNNNNNNNNNNNNNNNNNNNNNNNNNNNNNNNNNNNNNNNNNNNNNNNNNNNNNNNNNN",
"NNNNNNNNNNNNNNNNNNNNNNNNNNNNNNNNNNNNNNNNNNNNNNNNNNNNNNNNNNNNNNNNNNNNNNNNNNNNNNNNNNNNNNNNNNNNNNNNNNNNNNNNNNNNNNNNNNNNNNNNNNNNNNNN",
"NNNNNNNNNNNNNNNNNNNNNNNNNNNNNNNNNNNNNNNNNNNNNNNNNNNNNNNNNNNNNNNNNNNNNNNNNNNNNNNN     .    NNNNNNNNNNNNNNNNNNNNNNNNNNNNNNNNNNNNNN",
"NNNNNNNNNNNNNNNNNNNNNNNNNNNNNNNNNNNNNNNNNNNNNNNNNNNNNNNNNNNNNN              .              NNNNNNNNNNNNNNNNNNNNNNNNNNNNNNNNNNNNN",
"NNNNNNNNNNNNNNNNNNNNNNNNNNNNNNNNNNNNNNNNNNNN..              .        .                      NNNNNNNNNNNNNNNNNNNNNNNNNNNNNNNNNNNN",
"NNNNNNNNNNNNNNNNNNNNNNNNNNNNNNNNNN  +X  o . .   .         .     .       .   .                NNNNNNNNNNNNNNNNNNNNNNNNNNNNNNNNNNN",
"NNNNNNNNNNNNNNNNNNNNNNNNNNNNNNNNN  ...      .          .                                   .  NNNNNNNNNNNNNNNNNNNNNNNNNNNNNNNNNN",
"NNNNNNNNNNNNNNNNNNNNNNNNNNNNNNNN                                                            ..NNNNNNNNNNNNNNNNNNNNNNNNNNNNNNNNNN",
"NNNNNNNNNNNNNNNNNNNNNNNNNNNNNNNN                                       . oO+O+#$$**;<14@     ..NNNNNNNNNNNNNNNNNNNNNNNNNNNNNNNNN",
"NNNNNNNNNNNNNNNNNNNNNNNNNNNNNNN                     ....oO+@#$%**:<24690ettufhjllclbcbbe+       NNNNNNNNNNNNNNNNNNNNNNNNNNNNNNNN",
"NNNNNNNNNNNNNNNNNNNNNNNNNNNNNN       XoO+@#$&**:<24690ettuffjklclblbcbbccxlkhguutte066fbwO       NNNNNNNNNNNNNNNNNNNNNNNNNNNNNNN",
"NNNNNNNNNNNNNNNNNNNNNNNNNNNNNN      @0usfhhkzcccbccccccllkhfuttee9654<:-*%$#@++O.o..  *hb7X       NNNNNNNNNNNNNNNNNNNNNNNNNNNNNN",
"NNNNNNNNNNNNNNNNNNNNNNNNNNNNN       9bckhfsutte0944<,-*%$$@+++X.   .                   ;jc4X       NNNNNNNNNNNNNNNNNNNNNNNNNNNNN",
"NNNNNNNNNNNNNNNNNNNNNNNNNNNN       <zz<#@oooo X                                         <kl4.       NNNNNNNNNNNNNNNNNNNNNNNNNNNN",
"NNNNNNNNNNNNNNNNNNNNNNNNNNN       $fb5                                                   4ck,   .    NNNNNNNNNNNNNNNNNNNNNNNNNNN",
"NNNNNNNNNNNNNNNNNNNNNNNNNNN      oebto              .     .     .         .              X6bh*   .    NNNNNNNNNNNNNNNNNNNNNNNNNN",
"NNNNNNNNNNNNNNNNNNNNNNNNNN       4bh%                        .      .                  .  o9bf*        NNNNNNNNNNNNNNNNNNNNNNNNN",
"NNNNNNNNNNNNNNNNNNNNNNNNN       *kc2            .                                 .       .orns$       NNNNNNNNNNNNNNNNNNNNNNNNN",
"NNNNNNNNNNNNNNNNNNNNNNNNN      @un0X                                           .            @tbt@       NNNNNNNNNNNNNNNNNNNNNNNN",
"NNNNNNNNNNNNNNNNNNNNNNNN      X9bf@                        .      .  .   .            .      #snt+       NNNNNNNNNNNNNNNNNNNNNNN",
"NNNNNNNNNNNNNNNNNNNNNNN       <xc*                                           .                %fb9X       NNNNNNNNNNNNNNNNNNNNNN",
"NNNNNNNNNNNNNNNNNNNNNN       $gb6               .    .                            .            *gb7X       NNNNNNNNNNNNNNNNNNNNN",
"NNNNNNNNNNNNNNNNNNNNNN      Xtbt+                                                               :kc4.       NNNNNNNNNNNNNNNNNNNN",
"NNNNNNNNNNNNNNNNNNNNN       4bh%                                       .        .              . 2ll2.       NNNNNNNNNNNNNNNNNNN",
"NNNNNNNNNNNNNNNNNNNN.      *kc1                     .                                .     .     .4bk:        NNNNNNNNNNNNNNNNNN",
"NNNNNNNNNNNNNNNNNNNN      @un0X                                   .         .   .              .  .7bh*        NNNNNNNNNNNNNNNNN",
"NNNNNNNNNNNNNNNNNNN      .9bs@                                                                     O0bf%       NNNNNNNNNNNNNNNNN",
"NNNNNNNNNNNNNNNNNN       <ck-                                            .                          +rnu$       NNNNNNNNNNNNNNNN",
"NNNNNNNNNNNNNNNNN       $fb6.                                         .            .        .        @unt+       NNNNNNNNNNNNNNN",
"NNNNNNNNNNNNNNNNN      XrbtO                      $4554,&@.                 .           .             $fbeO  .    NNNNNNNNNNNNNN",
"NNNNNNNNNNNNNNNN  .    4bh%                       <cbbbccge1@      .                   .               %gb9o    .  NNNNNNNNNNNNN",
"NNNNNNNNNNNNNNN       =jc2              .         *lbbbbbbbvf5#                                         *kv6.       NNNNNNNNNNNN",
"NNNNNNNNNNNNNNN      @pbqX   .     .         .    #kbbbbvbbbbcf1.                   .                    <lc4.       NNNNNNNNNNN",
"NNNNNNNNNNNNNN       9bs@                         @gbbbbbbbbbbbc0@                               .        4ck< .  . . NNNNNNNNNN",
"NNNNNNNNNNNNN       1cl>               .          otnbbbbbbbbbbbbt$              .                         4cj*.    ...NNNNNNNNN",
"NNNNNNNNNNNN .     %gb6                       .   .0cczcbbbbvbvbbbu@                               .       X9bf*        NNNNNNNN",
"NNNNNNNNNNNN      XrbyO              .    .        $***4efbbbbbbbbbe+               .                .      owbf$       NNNNNNNN",
"NNNNNNNNNNN.      4vh%          .                        #4hbbbbbbbb6            X                           +tbt#       NNNNNNN",
"NNNNNNNNNN       =lv2          .                           $evbbbbbbz*                                        $unt@     . NNNNNN",
"NNNNNNNNNN  .   @abqX                                       o7cnbbbbbeo                                    .   $sbwO       NNNNN",
"NNNNNNNNN      Xqbs#                                         o0nbbbbbk*                           .             *hb6X     . NNNN",
"NNNNNNNN       <cx>             .                     .       @tbbbbbbe                                          *jb4.       NNN",
"NNNNNNN       %gb6        X               .   .    .ooX       .*kbbbbbh#        o#**<<<*$O.                    . X1ll4.       NN",
"NNNNNNN      OrMiO                  .            .*0ste*X      .tbbbbbc,     X&5thkccccchp9*o  .                  .4ck:.      NN",
"NNNNNN       4bh&                 OO.           .4kbnnnl7o      <bbbbbb9   o,tkbnbbbbbbbbnbxu4@.        .    .     .4bj-      NN",
"NNNNN       -zv2                 .4s04,%+.      ,cbbbbbbc4      $kbbbbbe. &rcbbbbbbbbcbbbcbbncp*X                   X0bpO     NN",
"NNNNN      @abwX                 .tnbbcly@     Otbbbbbbbbs@     ofbbbbbu+2hbbbbbbbbbbbbbbbbbbnbk7+                   -cuo .   NN",
"NNNN      Xqmd#                  oybbbbbu#..   #kbbbbbbbbl*     oubbbbbf0cbbbbbbbbbbbbbbbbbbvbbbbe@          .       2b9      NN",
"NNN       <cx>             X     opnbbbbu@..   %zbbbbbbbbc;     oebbbbbccbbbbbbbbnbccccnnbbvbbbbbbt@      .          9b4      NN",
"NN .  . X$db7                    Xybbbbbu#     @hbbbbbbcbk%     oubbcbbbbbbbbbbbcp74**46tkbbbbbbbbb9.  .            Xtc;     NNN",
"NN      XimiXX                    enbbbbj$     .0bbbbbbbbto     @fbbbbbbbbbcbbl0*o  X   X%9hbbbbbbu*                +fk$     NNN",
"NN      <bj&                      8bbbbbc<      $fnnbbbbh*      *cbcbbbcbbbbbf;            *tvbblw@          .      $ks+     NNN",
"NNN     -vd@  X        X          <bbbbbbwX      %tlcblt*       6bbbbbbbbbbbt$              O0bc4o         .        *ct     .NNN",
"NNN     +dv-                      $kbbbbbh$       X*44:+       @fbbbbcbbbbbp$                O6*                    4b7      NNN",
"NNN     Xwm5                      .tbbbbbb0.                  .4bbbbbbbbbbh*                         .              0b4      NNN",
"NNNN.    <bpX               X      <bnbbbbc<                  *hbcbbbcbbbc5     ..  XX        .            .       Xtx*     NNNN",
"NNNN     $jz$             X        +ubbbbbbh-                $sbbbbbbbbbbf@     .X$5rr6*X                     .    +hk$     NNNN",
"NNNN     Xib2                       2bbbbbbbg;.             *sbcbbbbbbbbb0       *gbbbbk4o             .   .       %lu+     NNNN",
"NNNN      4MeX                      Otbbbbbbbk6@          O4hbbbbbcbbbcbc,      *kbbbbbbl4                         :bt.   . NNNN",
"NNNNN     -ch#                       &hnbbbbbnbf4%O.. .o$4ubbbbbbbbbbbbbk$     Xenbbbvbvnf@      .                 4b6   .  NNNN",
"NNNNN  .  +dv>                        <lnbbbbbbnbkue00euhbbbbbbbcbbbbbbbh+     $hbbvbbbbbl*                       .0b2      NNNN",
"NNNNN      qM8  X                      2zbbbbbbbbbbnnnbbbbbbbbbbbbbcbbbbfO     $kbbvbvbbbb1  .                    Oul*     NNNNN",
"NNNNNN     <maXX                        <jnbbbbbnbbbbbbbbbbbbbcbbbbbbbbbh@     @gbbbbbbbbl*           .   .       @hj$     NNNNN",
"NNNNNN     #jx%                          =pvbbbbbbbbbbbbbbbbbbbbbbbbcbbbk$      wbbbbbbbbs+                 .     &lfo    .NNNNN",
"NNNNNN     Xim3                           @5hbbbbbbbbbbbbbbbbbbbcbbbbbbbc<      %gbbbbbbl,                        ,beX    .NNNNN",
"NNNNNN      5MrX                            #wbbbbbbbbbbbbbbbbbbbbbcbbbbb0       &pvbbbg<                         4b6      NNNNN",
"NNNNNNN     =ch#              X             #pbbbbbbbbbnxlljllbbbbbbbbbbbh&       @,902#              .          .wb1      NNNNN",
"NNNNNNN     Odb,                           Oibbbbbnbncs7>$##$>7scbbbbbcbbb9                                      opl*     NNNNNN",
"NNNNNNN      qMq                          X6bbbnbbbbs1+        O<ubbbbbbbbl;                  $6$          .     @gj@   . NNNNNN",
"NNNNNNNN     ,baX                         =xMbbnbbv0@            +9cbcbbbbbf&                +ybf<.    .         *lpO     NNNNNN",
"NNNNNNNN     #jc=    X                   XiMnbMbnv5X               5cbbbbbbbf*              $tbbbce$             <bw      NNNNNN",
"NNNNNNNN     XiM3                . .     -cbmbMbb9.                .6bbbbcbbbh2O          X>sbvbbbbf,            6b6  .   NNNNNN",
"NNNNNNNN      3MiX                      XwmmbMbbp+                  Otbbbbbbbbbu1#X    X@>tlbbbbbbbc2      .    Xev,     NNNNNNN",
"NNNNNNNNN     &cj#                      #hMMMbMc,        O##X        *lbbbbbbbbbchi8337rfcbbbbbbbbb6..          Oux&     NNNNNNN",
"NNNNNNNNN     Osb,                      >vMbbMMiO      O2iggi3O  .   Xtbbbbbbbbbbbbbbbbmbbbbbbbbbb0O            $kh+     NNNNNNN",
"NNNNNNNNN     X8Mq                .     5Mmnnnb3      OwvnbnmvwO      <bbbbbbbbbbbbbbbbbbbbbbbbbl8X             =cyX     NNNNNNN",
"NNNNNNNNNN     ,bdO       X            .rMmmnnc&      4bnnbnmmb5      $kbbbbbbbbbbbbbbbbbbbbbbbh4X              1bwX     NNNNNNN",
"NNNNNNNNNN     #jc=                    XiMmnnnh+     @snbbnnbbmg@     OfbbbbbbbbbbbbbbbbbbbbMxe&          .     8b4    . NNNNNNN",
"NNNNNNNNNN     XrM5                    +sMmnMMaO     &xbnnbbbmmc*     ounbbbblhcbbbbbbbbbbbje>X                Xrc;     NNNNNNNN",
"NNNNNNNNNN      3miX X            .    +sMMMMMsO     &xMMbmbmbmx*     Xumbbmbs%1wajxxxllse3$.               ...Xux&     NNNNNNNN",
"NNNNNNNNNNN     =cj#                   OpMbMbMg+     #gMbMmmbMml$     OfMbbbmaX  O#%**&#+.                .  ..#xg@     NNNNNNNN",
"NNNNNNNNNNN     Xab,                   .tMbMbMx%      qMmmbmbbMq.   . #hbbbbmt.                                =cyX     NNNNNNNN",
"NNNNNNNNNNN     XqMq                    9MMMMMb1      #smmmmMMs$      *bMbmbbq                       .         3v9X     NNNNNNNN",
"NNNNNNNNNNNN     -vdX               .   <bMMMMMrX      #wlvvlr$       enbbmbv2                        .        qv3      NNNNNNNN",
"NNNNNNNNNNNN     +hv=            .      $lMMMMMl&       X$,,%X       %hnmbbMl%            .     .            .Xrv;     NNNNNNNNN",
"NNNNNNNNNNNN    XXem5X                  XiMMMMl8@     X             .wnnbnmMiX              .               . Xdj$X    NNNNNNNNN",
"NNNNNNNNNNNN      3biX         X         2mMcr&                     1cnnMbmv3                              ...=ld+     NNNNNNNNN",
"NNNNNNNNNNNNN     $xx$          X        +ai>X                     *lnnnbbMd@                          .      ,vyX     NNNNNNNNN",
"NNNNNNNNNNNNN     Xam1                   X#XX                    X2xnnnnnnv2         .     .   ..             3v8      NNNNNNNNN",
"NNNNNNNNNNNNN     X8meXX     X                                 X$ecnnnnnmMtX                                  qm3      NNNNNNNNN",
"NNNNNNNNNNNNNN     >vd+                                      @>wknnnnnnnMh& .                  .             Xic=    XNNNNNNNNNN",
"NNNNNNNNNNNNNN     Xhc=                   X                  3vMnnnnnnnMl>                                  X@dl#     NNNNNNNNNN",
"NNNNNNNNNNNNNN     XeM6X                        X            >bMnnMnnnMc1                    .               ,xd+     NNNNNNNNNN",
"NNNNNNNNNNNNNN      2miX                                     %lMnnnnnnh*     .          .             .    $7jMrX     NNNNNNNNNN",
"NNNNNNNNNNNNNNN    X$xl$                                    XXdMnnnnny&                .                 @3dmcr&      NNNNNNNNNN",
"NNNNNNNNNNNNNNN     Xan1                                     XrMMMmd3X                                 X1dvvi,X .     NNNNNNNNNN",
"NNNNNNNNNNNNNNN      7Me                                      5mxi3@     X                            ,ivmd2X       XNNNNNNNNNNN",
"NNNNNNNNNNNNNNNN     -vl1+                                    %2&X    X              .             .=rvmg5#         XNNNNNNNNNNN",
"NNNNNNNNNNNNNNNN     +sMbd5$X                 X                                 .           .     =qlml8$   .   .   NNNNNNNNNNNN",
"NNNNNNNNNNNNNNNN      %qhmMlq-+                         X                                      X$3jmxe=       ..  NNNNNNNNNNNNNN",
"NNNNNNNNNNNNNNNNNX     X#2ivMvp3#                     X                                 .     X3dmvi>X      .  .NNNNNNNNNNNNNNNN",
"NNNNNNNNNNNNNNNNN         X=wlMmjq&X                                                        X<dmmd,X          NNNNNNNNNNNNNNNNNN",
"NNNNNNNNNNNNNNNNN           X%3sbMci<+                                                    X>ivmd3X           NNNNNNNNNNNNNNNNNNN",
"NNNNNNNNNNNNNNNNNN             +,rlMmd7&X                                                =rvMj7#X        . NNNNNNNNNNNNNNNNNNNNN",
"NNNNNNNNNNNNNNNNNNNN             X&7gmMlr,O                                      .     %qxMcq%           NNNNNNNNNNNNNNNNNNNNNNN",
"NNNNNNNNNNNNNNNNNNNNNNN             @1icMvs3#                                      X #7jMvr*        X XNNNNNNNNNNNNNNNNNNNNNNNNN",
"NNNNNNNNNNNNNNNNNNNNNNNNN             .*qjmMlw>X                    X              X3dMbi>X         XNNNNNNNNNNNNNNNNNNNNNNNNNNN",
"NNNNNNNNNNNNNNNNNNNNNNNNNNNN             #3ivMci2#X                              X<amMd3O         XNNNNNNNNNNNNNNNNNNNNNNNNNNNNN",
"NNNNNNNNNNNNNNNNNNNNNNNNNNNNNN            XX>elMMg8=X                          .>ivMd3@       .   NNNNNNNNNNNNNNNNNNNNNNNNNNNNNN",
"NNNNNNNNNNNNNNNNNNNNNNNNNNNNNNNN              $7dbMcr<+                       =ecMl8#           NNNNNNNNNNNNNNNNNNNNNNNNNNNNNNNN",
"NNNNNNNNNNNNNNNNNNNNNNNNNNNNNNNNNNN             O<tlMbd7%X                  $qlMcq=     .     NNNNNNNNNNNNNNNNNNNNNNNNNNNNNNNNNN",
"NNNNNNNNNNNNNNNNNNNNNNNNNNNNNNNNNNNNN     .       X&7hMMlr>X              @3lMbi>           NNNNNNNNNNNNNNNNNNNNNNNNNNNNNNNNNNNN",
"NNNNNNNNNNNNNNNNNNNNNNNNNNNNNNNNNNNNNNNN             #2icMba3#          X1dMmi,X          NNNNNNNNNNNNNNNNNNNNNNNNNNNNNNNNNNNNNN",
"NNNNNNNNNNNNNNNNNNNNNNNNNNNNNNNNNNNNNNNNNN  .          X=qjMmjq>X     X,dmmd3X           NNNNNNNNNNNNNNNNNNNNNNNNNNNNNNNNNNNNNNN",
"NNNNNNNNNNNNNNNNNNNNNNNNNNNNNNNNNNNNNNNNNNNN              $3svMvi1#  =ibMj7+           NNNNNNNNNNNNNNNNNNNNNNNNNNNNNNNNNNNNNNNNN",
"NNNNNNNNNNNNNNNNNNNNNNNNNNNNNNNNNNNNNNNNNNNNNNN             +>rlMMd8qcMlq%           NNNNNNNNNNNNNNNNNNNNNNNNNNNNNNNNNNNNNNNNNNN",
"NNNNNNNNNNNNNNNNNNNNNNNNNNNNNNNNNNNNNNNNNNNNNNNNN             X$7dbMMve&          .NNNNNNNNNNNNNNNNNNNNNNNNNNNNNNNNNNNNNNNNNNNNN",
"NNNNNNNNNNNNNNNNNNNNNNNNNNNNNNNNNNNNNNNNNNNNNNNNNNNN             X2ii>X          NNNNNNNNNNNNNNNNNNNNNNNNNNNNNNNNNNNNNNNNNNNNNNN",
"NNNNNNNNNNNNNNNNNNNNNNNNNNNNNNNNNNNNNNNNNNNNNNNNNNNNNN             XX         XNNNNNNNNNNNNNNNNNNNNNNNNNNNNNNNNNNNNNNNNNNNNNNNNN",
"NNNNNNNNNNNNNNNNNNNNNNNNNNNNNNNNNNNNNNNNNNNNNNNNNNNNNNNN    .                 NNNNNNNNNNNNNNNNNNNNNNNNNNNNNNNNNNNNNNNNNNNNNNNNNN",
"NNNNNNNNNNNNNNNNNNNNNNNNNNNNNNNNNNNNNNNNNNNNNNNNNNNNNNNNNNN                 NNNNNNNNNNNNNNNNNNNNNNNNNNNNNNNNNNNNNNNNNNNNNNNNNNNN",
"NNNNNNNNNNNNNNNNNNNNNNNNNNNNNNNNNNNNNNNNNNNNNNNNNNNNNNNNNNNNN   .         NNNNNNNNNNNNNNNNNNNNNNNNNNNNNNNNNNNNNNNNNNNNNNNNNNNNNN",
"NNNNNNNNNNNNNNNNNNNNNNNNNNNNNNNNNNNNNNNNNNNNNNNNNNNNNNNNNNNNNNNN       .NNNNNNNNNNNNNNNNNNNNNNNNNNNNNNNNNNNNNNNNNNNNNNNNNNNNNNNN",
"NNNNNNNNNNNNNNNNNNNNNNNNNNNNNNNNNNNNNNNNNNNNNNNNNNNNNNNNNNNNNNNNNN    NNNNNNNNNNNNNNNNNNNNNNNNNNNNNNNNNNNNNNNNNNNNNNNNNNNNNNNNNN",
"NNNNNNNNNNNNNNNNNNNNNNNNNNNNNNNNNNNNNNNNNNNNNNNNNNNNNNNNNNNNNNNNNNNNNNNNNNNNNNNNNNNNNNNNNNNNNNNNNNNNNNNNNNNNNNNNNNNNNNNNNNNNNNNN",
"NNNNNNNNNNNNNNNNNNNNNNNNNNNNNNNNNNNNNNNNNNNNNNNNNNNNNNNNNNNNNNNNNNNNNNNNNNNNNNNNNNNNNNNNNNNNNNNNNNNNNNNNNNNNNNNNNNNNNNNNNNNNNNNN",
"NNNNNNNNNNNNNNNNNNNNNNNNNNNNNNNNNNNNNNNNNNNNNNNNNNNNNNNNNNNNNNNNNNNNNNNNNNNNNNNNNNNNNNNNNNNNNNNNNNNNNNNNNNNNNNNNNNNNNNNNNNNNNNNN"
};
