/* XPM */
static char *bitcoin32[] = {
/* columns rows colors chars-per-pixel */
"32 32 231 2 ",
"   c #053258",
".  c #053359",
"X  c #053459",
"o  c #05345A",
"O  c #05355A",
"+  c #05355B",
"@  c #06355A",
"#  c #06355B",
"$  c #06365B",
"%  c #06365C",
"&  c #06375C",
"*  c #06385C",
"=  c #06385D",
"-  c #06395D",
";  c #06395E",
":  c #063A5E",
">  c #073A5E",
",  c #063A5F",
"<  c #073A5F",
"1  c #073B5F",
"2  c #073B60",
"3  c #073C60",
"4  c #073C61",
"5  c #073D61",
"6  c #073E62",
"7  c #083F62",
"8  c #083F63",
"9  c #084063",
"0  c #084064",
"q  c #084164",
"w  c #084165",
"e  c #084265",
"r  c #084266",
"t  c #084366",
"y  c #094367",
"u  c #094467",
"i  c #094568",
"p  c #094668",
"a  c #094669",
"s  c #09476A",
"d  c #09486A",
"f  c #0A496B",
"g  c #0A496C",
"h  c #0A4A6D",
"j  c #0A4B6D",
"k  c #0A4C6D",
"l  c #0A4C6E",
"z  c #0A4D6F",
"x  c #0B4D6F",
"c  c #0B4E6F",
"v  c #0B4E70",
"b  c #0B4F70",
"n  c #0B4F71",
"m  c #0B5071",
"M  c #0B5072",
"N  c #0B5172",
"B  c #0B5273",
"V  c #0C5173",
"C  c #0C5273",
"Z  c #0C5374",
"A  c #0C5474",
"S  c #0C5475",
"D  c #0C5575",
"F  c #0C5476",
"G  c #0C5676",
"H  c #0D5677",
"J  c #0D5778",
"K  c #0D5878",
"L  c #0D5979",
"P  c #0D5A79",
"I  c #0D5A7A",
"U  c #0D5B7A",
"Y  c #0E5C7B",
"T  c #0E5D7C",
"R  c #0E5E7D",
"E  c #0E5F7E",
"W  c #0F5F7F",
"Q  c #0F617F",
"!  c #0F6180",
"~  c #0F6280",
"^  c #0F6281",
"/  c #0F6381",
"(  c #0F6482",
")  c #0F6583",
"_  c #0F6683",
"`  c #106583",
"'  c #106683",
"]  c #106684",
"[  c #106784",
"{  c #106785",
"}  c #106885",
"|  c #106986",
" . c #106987",
".. c #116987",
"X. c #106A87",
"o. c #116A87",
"O. c #116B88",
"+. c #116B89",
"@. c #116C89",
"#. c #116D8A",
"$. c #116E8A",
"%. c #116E8B",
"&. c #116F8B",
"*. c #126E8B",
"=. c #126F8B",
"-. c #126F8C",
";. c #12708C",
":. c #12718C",
">. c #12718D",
",. c #12728D",
"<. c #12728E",
"1. c #12738F",
"2. c #13738F",
"3. c #13748F",
"4. c #137490",
"5. c #137590",
"6. c #137491",
"7. c #137591",
"8. c #137690",
"9. c #137691",
"0. c #137792",
"q. c #147793",
"w. c #147893",
"e. c #147993",
"r. c #137994",
"t. c #147894",
"y. c #147994",
"u. c #147A95",
"i. c #147B95",
"p. c #157A96",
"a. c #147B96",
"s. c #147C96",
"d. c #147D97",
"f. c #157D97",
"g. c #157D98",
"h. c #157E98",
"j. c #157F99",
"k. c #15809A",
"l. c #15819A",
"z. c #16819B",
"x. c #15829B",
"c. c #16829C",
"v. c #16839C",
"b. c #16839D",
"n. c #16849D",
"m. c #16849E",
"M. c #16859E",
"N. c #17869F",
"B. c #17889F",
"V. c #1786A0",
"C. c #1787A0",
"Z. c #1787A1",
"A. c #178AA2",
"S. c #188AA2",
"D. c #188BA2",
"F. c #188EA5",
"G. c #188FA5",
"H. c #198EA6",
"J. c #1991A8",
"K. c #1992A8",
"L. c #1992A9",
"P. c #1A98AD",
"I. c #1B98AD",
"U. c #1B9AAF",
"Y. c #1B9BAF",
"T. c #1B9BB0",
"R. c #1B9CB1",
"E. c #1C9EB3",
"W. c #1C9FB3",
"Q. c #1CA1B5",
"!. c #1DA2B5",
"~. c #1EA6B9",
"^. c #1EAABC",
"/. c #1FAABD",
"(. c #1FABBD",
"). c #1FABBE",
"_. c #1FACBD",
"`. c #20AFC1",
"'. c #20B2C3",
"]. c #21B2C4",
"[. c #20B3C4",
"{. c #21B8C8",
"}. c #22B9C9",
"|. c #22BACA",
" X c #22BCCB",
".X c #23BECD",
"XX c #23C0CE",
"oX c #23C1CF",
"OX c #23C2D0",
"+X c #24C2D0",
"@X c #24C5D3",
"#X c #24C6D3",
"$X c #24C6D4",
"%X c #25C7D4",
"&X c #25C8D5",
"*X c #26CBD7",
"=X c #26CBD8",
"-X c #26CBD9",
";X c #26CDDA",
":X c #26CEDA",
">X c #27D0DC",
",X c #27D1DC",
"<X c #27D3DE",
"1X c #27D4DF",
"2X c #28D6E1",
"3X c #28D7E2",
"4X c #29D8E2",
"5X c #29DAE3",
"6X c #29D9E4",
"7X c #29DAE4",
"8X c #2ADBE6",
"9X c #29DCE6",
"0X c #2ADDE6",
"qX c #2ADEE8",
"wX c #2ADFE8",
"eX c #2AE0E8",
"rX c #2AE0E9",
"tX c #2AE1E9",
"yX c #2BE0EA",
"uX c #2AE1EA",
"iX c #2BE2EB",
"pX c #2BE3EB",
"aX c #2BE2EC",
"sX c #2BE3EC",
"dX c #2BE4EC",
"fX c #2CE6EE",
"gX c #2DE8F1",
"hX c #2CE9F1",
"jX c #2DEAF1",
"kX c #2DECF2",
"lX c None",
/* pixels */
"lXlXlXlXlXlXlXlXlXlXlXlXlXlXlXlXlXlXlXlXlXlXlXlXlXlXlXlXlXlXlXlX",
"lXlXlXlXlXlXlXlXlX@ @ @ . @ @ @ @ @ & @ & & @ lXlXlXlXlXlXlXlXlX",
"lXlXlXlXlXlXlXlX* a v M S L T ! _ +.#.4.4.r.d @ lXlXlXlXlXlXlXlX",
"lXlXlXlXlXlXlX@ M n.;.#.X._ _ T L S v j a L z.a & lXlXlXlXlXlXlX",
"lXlXlXlXlXlX@ q n.v @ & @ @ @ @ @ @ @ & @ @ L j.q @ lXlXlXlXlXlX",
"lXlXlXlXlXlX& 4.! & & & & & * * & & & & & & @ Q u.2 & lXlXlXlXlX",
"lXlXlXlXlX@ T u.* & * * & . @ @ & & & & & & & &  .3.* & lXlXlXlX",
"lXlXlXlX@ d n.u & & & @ v 4.! q & & & & & & & & * ;.#.& lXlXlXlX",
"lXlXlXlX* j.L @ & & & . _ 0X0X[.L & & & & & & & * * 4._ & lXlXlX",
"lXlXlX@  .-.& & & & & & u #.P.4X$XZ @ & & @ & & * * 7 u.T & lXlX",
"lXlX@ Z m.2 & & & @ @ & 5 9 @ w.uXP.@ 5 j B a @ & & & q z.H & lX",
"lX& 8 m.x & & & L 7.q 7 Y.oX' 7  X$X#.^.<X2X$XF.a & & @ a n.q @ ",
"lX* 4.{ @ * & . m.0X! a =XjXS.* _.tX7X4X^.T..XsXT.2 & & * d.t lX",
"lX5 n.e & & & . #.uXS.& ;.K.x d $XfX=X' * @ e j.L & & & e d.2 lX",
"lX@ 4.S @ & & & a oX<X+.* & d Q.uXfXS.@ w.R.B @ & & & @ v 4.& lX",
"lX@ ! ;.@ & & & @ { <X4X[.~.$XuXfX0X{ a -XkXG.@ & & & @ T | @ lX",
"lXlXa z.> & & & & @ T $XjXsX<X2XdXuXd.* K.}.` @ & & & @ +.L @ lX",
"lXlX* z.g & & & & @ { 7X$X-.j J P.eXoXM & 4 & ;.#.* & & 4.x @ lX",
"lXlX. +.` . & & & * ^.7X! * T j * Q.fX#XS.u.Q.0X{.q & 2 j.q lXlX",
"lXlX. Z u.@ & & & a -X}.2 r.qX Xq  .uX0XqXtX7X/.H & & y r.* lXlX",
"lXlXlX8 m.8 & & & a ;X X2 j.sX+Xa  .uXK.! +.L 7 & & & v 4.@ lXlX",
"lXlXlX& q.J @ & & * `.].q 7 { Z * E.qX{ . . . & & & @ ! { @ lXlX",
"lXlXlX@ T ;.. & & & j a & & . g K.sX`.8 & & & & & & . #.J @ lXlX",
"lXlXlXlXa m.* & & & @ & & & @ G.jX}.V @ & & & & @ & S Z.a lXlXlX",
"lXlXlXlX* z._ 8 @ & & & & & & ! j.a @ & & & @ & v u.j.v & lXlXlX",
"lXlXlXlX& a 4.Z.-.j & @ & & & @ @ @ & & & @ a 4.m.J * @ lXlXlXlX",
"lXlXlXlXlX& @ q ! n.d.L 2 @ @ & & & & @ e #.Z.! 4 @ lXlXlXlXlXlX",
"lXlXlXlXlXlXlXlX@ * H u.n.+.a & @ @ 5 ! Z.+.8 @ lXlXlXlXlXlXlXlX",
"lXlXlXlXlXlXlXlXlXlX@ @ a  .n.r.B T n.4.a @ lXlXlXlXlXlXlXlXlXlX",
"lXlXlXlXlXlXlXlXlXlXlXlXlX& 5 L j.r.x & @ lXlXlXlXlXlXlXlXlXlXlX",
"lXlXlXlXlXlXlXlXlXlXlXlXlXlXlX@ & & @ lXlXlXlXlXlXlXlXlXlXlXlXlX",
"lXlXlXlXlXlXlXlXlXlXlXlXlXlXlXlXlXlXlXlXlXlXlXlXlXlXlXlXlXlXlXlX"
};
