/* XPM */
static char *bitcoin32[] = {
/* columns rows colors chars-per-pixel */
"32 32 93 2 ",
"   c #0294BC",
".  c #0997BE",
"X  c #029ABD",
"o  c #0B9ABE",
"O  c #109BBE",
"+  c #0E96C1",
"@  c #0F9AC0",
"#  c #1497C2",
"$  c #149CC2",
"%  c #1B9CC4",
"&  c #0DA7CE",
"*  c #15A3C4",
"=  c #1DA3C3",
"-  c #1CA8C7",
";  c #13A4CA",
":  c #18AAC9",
">  c #26A2C6",
",  c #2AA5C6",
"<  c #23A9C5",
"1  c #2FADC9",
"2  c #31A9C7",
"3  c #33A6CA",
"4  c #33AAC9",
"5  c #3CABCC",
"6  c #38B1CA",
"7  c #2FB7D3",
"8  c #30B6D2",
"9  c #3DB4D2",
"0  c #43ADCE",
"q  c #4BB5CF",
"w  c #43B4D1",
"e  c #49BDD6",
"r  c #4BBED9",
"t  c #56B7D2",
"y  c #5AB6D4",
"u  c #5DBCD3",
"i  c #57BEDA",
"p  c #66BDD7",
"a  c #6DBFD9",
"s  c #5DC6DC",
"d  c #54C4DB",
"f  c #6BC2D7",
"g  c #6EC3DA",
"h  c #71C4D9",
"j  c #7CC6DC",
"k  c #7CC9DD",
"l  c #81C7DE",
"z  c #84CCDE",
"x  c #89CEDF",
"c  c #8BD0DF",
"v  c #8CCBE3",
"b  c #92CEE3",
"n  c #83D2E5",
"m  c #8ED4E3",
"M  c #8FD9E8",
"N  c #96D1E4",
"B  c #9BD3E4",
"V  c #91D4EA",
"C  c #9DD4EA",
"Z  c #94DBE9",
"A  c #9DDCEB",
"S  c #A1D5E7",
"D  c #A3D9E6",
"F  c #A9DCE7",
"G  c #A6D6E9",
"H  c #A2DEEB",
"J  c #ACDCEA",
"K  c #B3DDEB",
"L  c #BADFEE",
"P  c #A4E1ED",
"I  c #ACE3EE",
"U  c #B6E1EC",
"Y  c #BBE3ED",
"T  c #B6E4F1",
"R  c #B8E6F1",
"E  c #BDE9F2",
"W  c #C2E5EE",
"Q  c #C3E5F1",
"!  c #CAE7F1",
"~  c #C4EAF2",
"^  c #CCEAF3",
"/  c #D4EDF4",
"(  c #DAEFF6",
")  c #D5F1F7",
"_  c #DDF1F6",
"`  c #DEF4F8",
"'  c #E1F2F7",
"]  c #E5F5F9",
"[  c #EAF6FA",
"{  c #EDF8FB",
"}  c #F4FBFC",
"|  c #FEFFFF",
" . c None",
/* pixels */
" . . . . . . . . . . . . . . . . . . . . . . . . . . . . . . . .",
" . . . . . . . . .| | | | | | | | | | | | | |  . . . . . . . . .",
" . . . . . . . .| [ _ / / ^ W Y U J F G S B ' |  . . . . . . . .",
" . . . . . . .| / c D F J U Y ! ^ / ( ' ] ^ b [ |  . . . . . . .",
" . . . . . .| } c _ | | | | | | | | | | | | ! N } |  . . . . . .",
" . . . . . .| B U | | | | | | | | | | | | | | W B } |  . . . . .",
" . . . . .| W B | | | | | | | | | | | | | | | | K G | |  . . . .",
" . . . .| ] c [ | | | | _ D W } | | | | | | | | | F J |  . . . .",
" . . . .} N ^ | | | | | Y O O q ! | | | | | | | | } S L |  . . .",
" . . .| U F | | | | | | { F h O 2 / | | | | | | | | } B Q |  . .",
" . .| / m } | | | | | | } } | B o h | } _ / [ | | | | [ b / |  .",
" .| } m _ | | | ^ D [ } h 2 U } 0 2 J y > % 3 l ] | | | ' v } | ",
" .| P Y | | | | c o U ] <   z | y o $ % y a 5 + a | | | | N [  .",
" .} m } | | | | I o z | F k _ ' , . , U | | [ b ! | | | [ N |  .",
" .| H ) | | | | [ 6 = U | | ' f . . x | S a / | | | | | ( G |  .",
" .| ~ I | | | | | U < * q u 2 o . O K [ ,   l | | | | | W K |  .",
" . .[ Z | | | | | | W 1 X o = = . . B | j 0 Y | | | | | K ! |  .",
" . .| Z ] | | | | | W - 4 J _ / h O 5 ( | } } J K } | | S ( |  .",
" . .| U E | | | | | s - E | ~ ' | p . 2 v B p # 0 [ | } B [  . .",
" . .| _ A | | | | [ 8 e } A * w [ K # $ # + % y / | | [ B |  . .",
" . . .} Z } | | | ] 7 e } A ; 9 [ U $ k Q K ^ } | | | ( G |  . .",
" . . .| P ) | | | | s d } } U ) | g ; R | | | | | | | Q L |  . .",
" . . .| ~ I | | | | ` [ | | | ] k & i } | | | | | | | K ^ |  . .",
" . . . .] Z | | | | | | | | | n & d ) | | | | | | | / v ]  . . .",
" . . . .| Z E } | | | | | | | ~ A [ | | | | | | _ S C ( |  . . .",
" . . . .| [ P M I ] | | | | | | | | | | | | [ H V ^ | |  . . . .",
" . . . . .| | { E Z A ^ } | | | | | | | } T V Q } |  . . . . . .",
" . . . . . . . .| | ) H Z R [ | | | } E V T } |  . . . . . . . .",
" . . . . . . . . . .| | [ R Z P ) ^ Z I [ |  . . . . . . . . . .",
" . . . . . . . . . . . . .| } ^ A H ' | |  . . . . . . . . . . .",
" . . . . . . . . . . . . . . .| | | |  . . . . . . . . . . . . .",
" . . . . . . . . . . . . . . . . . . . . . . . . . . . . . . . ."
};
