/* XPM */
static char *bitcoin16[] = {
/* columns rows colors chars-per-pixel */
"16 16 134 2 ",
"   c #179DC1",
".  c #30A7CA",
"X  c #36AACA",
"o  c #37AACA",
"O  c #44B4CE",
"+  c #4FB4D0",
"@  c #53B7D0",
"#  c #5BB6D5",
"$  c #57B8D2",
"%  c #57BCD3",
"&  c #60BDD4",
"*  c #63BFDA",
"=  c #66BDD8",
"-  c #5BC4DA",
";  c #5AC1DC",
":  c #6AC5DA",
">  c #6FC6D8",
",  c #74C2DA",
"<  c #77C7DA",
"1  c #77C7DB",
"2  c #7EC6DD",
"3  c #72CEE1",
"4  c #84C9DF",
"5  c #8BD3E4",
"6  c #95D2E3",
"7  c #97D5E3",
"8  c #93D5E5",
"9  c #9DD4E5",
"0  c #A2D6E7",
"q  c #A7DAE7",
"w  c #A7DBE7",
"e  c #A7DAE8",
"r  c #A6DCEA",
"t  c #A8DAE8",
"y  c #AADAE9",
"u  c #ACDDE8",
"i  c #ADDDE9",
"p  c #AFDDE9",
"a  c #AFDFEA",
"s  c #B0DDEA",
"d  c #B5E3ED",
"f  c #B9E2EC",
"g  c #BFE6F1",
"h  c #C2E4EF",
"j  c #C3E7EE",
"k  c #C4E8EF",
"l  c #C5E5F0",
"z  c #C7E6F0",
"x  c #C6E6F3",
"c  c #C8E7F0",
"v  c #C9E6F1",
"b  c #CAE7F1",
"n  c #CBE7F3",
"m  c #C4EAF1",
"M  c #C4EBF3",
"N  c #C5EBF3",
"B  c #C7EAF2",
"V  c #C5ECF3",
"C  c #C6ECF3",
"Z  c #C4EAF4",
"A  c #C7EAF4",
"S  c #C7EBF4",
"D  c #C9E9F0",
"F  c #CBE9F1",
"G  c #CBE8F2",
"H  c #CCE9F1",
"J  c #CCEAF1",
"K  c #CCE8F2",
"L  c #CDE9F2",
"P  c #CEE9F2",
"I  c #CFEAF2",
"U  c #C9EDF4",
"Y  c #CBECF5",
"T  c #CFEFF5",
"R  c #CFECF6",
"E  c #D3EDF3",
"W  c #D1EEF3",
"Q  c #D3EBF4",
"!  c #D4ECF4",
"~  c #D7EDF5",
"^  c #D7EFF4",
"/  c #D5ECF6",
"(  c #D8EFF4",
")  c #DCEFF6",
"_  c #D7F0F5",
"`  c #D4F0F7",
"'  c #D6F0F7",
"]  c #D6F1F7",
"[  c #D7F1F7",
"{  c #D9F0F5",
"}  c #D8F2F7",
"|  c #D9F2F7",
" . c #DCF0F6",
".. c #D9F2F8",
"X. c #DFF0F8",
"o. c #E2F2F7",
"O. c #E0F3F9",
"+. c #E3F2F8",
"@. c #E4F3F8",
"#. c #E5F3F8",
"$. c #E1F5F9",
"%. c #E7F5F8",
"&. c #E6F6FA",
"*. c #E9F6F9",
"=. c #EAF7F9",
"-. c #E8F7FA",
";. c #E9F7FA",
":. c #E8F7FB",
">. c #EAF7FB",
",. c #EEF7FB",
"<. c #EBF8FB",
"1. c #ECF8FB",
"2. c #ECF9FB",
"3. c #EEF8FB",
"4. c #EFF8FB",
"5. c #EFF9FC",
"6. c #F0F8FB",
"7. c #F0FAFC",
"8. c #F1FAFC",
"9. c #F3FAFC",
"0. c #F3FBFD",
"q. c #F4FAFC",
"w. c #F7FCFD",
"e. c #F8FCFD",
"r. c #FAFDFE",
"t. c #FBFDFE",
"y. c #FBFEFE",
"u. c #FCFEFE",
"i. c #FDFEFE",
"p. c #FDFEFF",
"a. c #FEFEFF",
"s. c #FEFFFF",
"d. c white",
"f. c None",
/* pixels */
"f.f.f.f.f.f.f.f.7.6.6.f.f.f.f.f.",
"f.f.f.f.W D J J J J v Q f.f.f.f.",
"f.f.f.^ J w.y.d.d.d.t.K ^ f.f.f.",
"f.f.%.j w.d.(  .d.d.d.t.v ) f.f.",
"f.f.j -.d.d.w @ i d.d.d.t.v o.f.",
"f.W ^ d.{ -.w p $ e 4 0 ,.7.l ,.",
"1.m y.d.> u < f X + 9 4 v d.J #.",
"7.C y.d.s % 7 &   s , J d.d.K 6.",
"f.U 1.d.d.: O 1 X 6 y j #.w.v f.",
"f.] { d.-.- d 8 e . = # l ,.J f.",
"f.<.U d.-.3 m 5 e * v o.d.+.Q f.",
"f.f.S 7.y.5.d.] ; g d.d.y.n X.f.",
"f.f...M X.y.d.<.] d.y.+.l ^ f.f.",
"f.f.f.-.` m ` 5.d.&.S R 5.f.f.f.",
"f.f.f.f.f.f...S Z Y :.f.f.f.f.f.",
"f.f.f.f.f.f.f.f.5.f.f.f.f.f.f.f."
};
