/* XPM */
static char *bitcoin16[] = {
/* columns rows colors chars-per-pixel */
"16 16 107 2 ",
"   c #053359",
".  c #053459",
"X  c #05345A",
"o  c #05355A",
"O  c #06355A",
"+  c #06365B",
"@  c #06375C",
"#  c #06385D",
"$  c #06395D",
"%  c #06395E",
"&  c #073A5F",
"*  c #073B5F",
"=  c #073B60",
"-  c #073C60",
";  c #073E62",
":  c #083F62",
">  c #083F63",
",  c #084164",
"<  c #084165",
"1  c #084265",
"2  c #094366",
"3  c #094467",
"4  c #094568",
"5  c #094668",
"6  c #094669",
"7  c #094769",
"8  c #09476A",
"9  c #0A496B",
"0  c #0A496C",
"q  c #0A4A6C",
"w  c #0A4B6D",
"e  c #0A4C6E",
"r  c #0B4C6E",
"t  c #0B4D6F",
"y  c #0B4E6F",
"u  c #0B4F70",
"i  c #0B5071",
"p  c #0B5172",
"a  c #0B5272",
"s  c #0C5172",
"d  c #0C5173",
"f  c #0C5273",
"g  c #0C5374",
"h  c #0C5474",
"j  c #0C5475",
"k  c #0C5576",
"l  c #0D5677",
"z  c #0D5777",
"x  c #0D5878",
"c  c #0D5979",
"v  c #0D5A79",
"b  c #0D5A7A",
"n  c #0D5B7A",
"m  c #0D5B7B",
"M  c #0E5B7A",
"N  c #0E5B7B",
"B  c #0D5C7B",
"V  c #0E5C7C",
"C  c #0E5D7C",
"Z  c #0E5E7D",
"A  c #0E5E7E",
"S  c #0E5F7E",
"D  c #0F5F7F",
"F  c #0F607F",
"G  c #0F617F",
"H  c #0F6180",
"J  c #0F6280",
"K  c #106582",
"L  c #106683",
"P  c #116B88",
"I  c #116D89",
"U  c #126E8A",
"Y  c #126F8B",
"T  c #12728D",
"R  c #13738E",
"E  c #13748F",
"W  c #137691",
"Q  c #147892",
"!  c #147B95",
"~  c #157E98",
"^  c #158099",
"/  c #16839C",
"(  c #188AA1",
")  c #188DA4",
"_  c #1991A7",
"`  c #1A94AA",
"'  c #1A95AA",
"]  c #1B98AD",
"[  c #1B9AAF",
"{  c #1C9CB1",
"}  c #1C9FB3",
"|  c #1DA2B6",
" . c #1EA5B8",
".. c #1EA6B9",
"X. c #1EAABC",
"o. c #1FABBD",
"O. c #1FACBD",
"+. c #1FACBE",
"@. c #1FAEBF",
"#. c #20AFC1",
"$. c #20B2C2",
"%. c #22B9C9",
"&. c #24C3D0",
"*. c #24C3D1",
"=. c #25C9D6",
"-. c #29DAE3",
";. c None",
/* pixels */
";.;.;.;.;.;.;.;.: < < ;.;.;.;.;.",
";.;.;.;.f c c c x c B f ;.;.;.;.",
";.;.;.p c : % % @ @ % c p ;.;.;.",
";.;.5 Z % + f u @ @ @ % B y ;.;.",
";.;.Z 5 + + R @.U + + + * B w ;.",
";.l f + f < R U O.R ( Q , ; Z < ",
"3 Z % % [ U ` L &.$.! _ c + z 9 ",
"< Z % + U o.~  .-.I ] l + % c < ",
";.V < @ % } %.` &.^ R F 9 ; b ;.",
";.g g X 5 o.U / R =.| X.F , c ;.",
";.5 V @ 5 { Z ( W  .B 9 + w l ;.",
";.;.Z : @ 5 @ g $.J + + % c y ;.",
";.;.g K w % + 5 g + % u D l ;.;.",
";.;.;.5 x K l : @ w Z c < ;.;.;.",
";.;.;.;.;.;.g Z K c 5 ;.;.;.;.;.",
";.;.;.;.;.;.;.;.< ;.;.;.;.;.;.;."
};
