/* XPM */
static char *bitcoin64[] = {
/* columns rows colors chars-per-pixel */
"64 64 151 2 ",
"   c #0697BC",
".  c #0996BE",
"X  c #059ABC",
"o  c #0A99BE",
"O  c #109CBF",
"+  c #0B95C0",
"@  c #0B9BC2",
"#  c #1296C2",
"$  c #139AC1",
"%  c #1C9DC3",
"&  c #229FC6",
"*  c #07A2C3",
"=  c #0AA3C5",
"-  c #0DA4CB",
";  c #09A9CA",
":  c #11A2C4",
">  c #1DA4C2",
",  c #14A1C9",
"<  c #15ABCD",
"1  c #1CA9CF",
"2  c #24A3C5",
"3  c #2BA6C6",
"4  c #21A8C4",
"5  c #2EA8C7",
"6  c #2DA3C8",
"7  c #23AACC",
"8  c #2AAECC",
"9  c #34ACC7",
"0  c #38AFC7",
"q  c #32A6C8",
"w  c #34AAC9",
"e  c #3BAACB",
"r  c #2BB0CD",
"t  c #37B0C7",
"y  c #37B1C9",
"u  c #3CB2CB",
"i  c #23AFD2",
"p  c #2EB3D5",
"a  c #37B0D1",
"s  c #35B8D4",
"d  c #3CBCD4",
"f  c #3FBDD9",
"g  c #43ACCE",
"h  c #48AFCF",
"j  c #43B4CD",
"k  c #4CB4CE",
"l  c #4DB8CF",
"z  c #50B6CF",
"x  c #52BACF",
"c  c #46AAD6",
"v  c #4CAED1",
"b  c #48AFD8",
"n  c #51AFD6",
"m  c #43B1D1",
"M  c #4DB5D3",
"N  c #42BED5",
"B  c #4ABFD7",
"V  c #42B3D9",
"C  c #43BDDB",
"Z  c #4BBDDD",
"A  c #53B4D2",
"S  c #5AB5D4",
"D  c #54BBD2",
"F  c #5CBBD3",
"G  c #51B1D9",
"H  c #5EB9DD",
"J  c #60B7D7",
"K  c #63BCD5",
"L  c #69BED7",
"P  c #64B7DB",
"I  c #66B9D9",
"U  c #6BBCD9",
"Y  c #71BEDC",
"T  c #43C1D7",
"R  c #45C2D9",
"E  c #4CC3DA",
"W  c #56C0D7",
"Q  c #53C4DD",
"!  c #5BC4DF",
"~  c #5AC9DD",
"^  c #65C2D5",
"/  c #6CC2D6",
"(  c #64C6DD",
")  c #6CC4DA",
"_  c #64CCDE",
"`  c #6CCADE",
"'  c #73C2DA",
"]  c #7BC5DC",
"[  c #73C8DB",
"{  c #7DCADC",
"}  c #63C6E1",
"|  c #6EC3E1",
" . c #66CCE0",
".. c #6DCCE1",
"X. c #77C7E4",
"o. c #73CEE3",
"O. c #7CCFE0",
"+. c #6FD0E2",
"@. c #73D0E2",
"#. c #7CD2E5",
"$. c #82C7DE",
"%. c #84CBDE",
"&. c #89CCDF",
"*. c #83C6E1",
"=. c #84CCE1",
"-. c #8BCCE1",
";. c #93CEE3",
":. c #84D5E5",
">. c #8CD3E2",
",. c #84D3E8",
"<. c #8CD9E8",
"1. c #93D3E3",
"2. c #9BD4E4",
"3. c #9DD9E5",
"4. c #9DD3E9",
"5. c #93D9E9",
"6. c #9BDBEA",
"7. c #92D5EA",
"8. c #A1D6E6",
"9. c #A5D9E7",
"0. c #A4D5EA",
"q. c #A8D7E9",
"w. c #A3DDED",
"e. c #ABDBEA",
"r. c #B2DDEB",
"t. c #B8DFEC",
"y. c #A3E1EC",
"u. c #AAE3ED",
"i. c #B4E3EC",
"p. c #BCE2ED",
"a. c #AFE2F0",
"s. c #B5E5F0",
"d. c #BAE5F1",
"f. c #BDE9F2",
"g. c #C4E5EF",
"h. c #C5E5F0",
"j. c #C9E7F1",
"k. c #C4EAF3",
"l. c #CCEAF2",
"z. c #D3ECF4",
"x. c #DAEFF5",
"c. c #D3F0F6",
"v. c #DCF1F6",
"b. c #DDF2F8",
"n. c #E1F2F7",
"m. c #E4F4F8",
"M. c #EBF6FA",
"N. c #EDF8FB",
"B. c #F4FAFC",
"V. c #FFFFFF",
"C. c None",
/* pixels */
"C.C.C.C.C.C.C.C.C.C.C.C.C.C.C.C.C.C.C.C.C.C.C.C.C.C.C.C.C.C.C.C.C.C.C.C.C.C.C.C.C.C.C.C.C.C.C.C.C.C.C.C.C.C.C.C.C.C.C.C.C.C.C.C.",
"C.C.C.C.C.C.C.C.C.C.C.C.C.C.C.C.C.C.C.C.C.C.C.C.C.C.C.C.C.C.C.C.C.C.C.C.C.C.C.C.C.C.C.C.C.C.C.C.C.C.C.C.C.C.C.C.C.C.C.C.C.C.C.C.",
"C.C.C.C.C.C.C.C.C.C.C.C.C.C.C.C.C.C.C.C.C.C.C.C.C.C.C.V.V.V.V.V.V.V.V.V.V.V.V.V.V.V.V.V.V.V.C.C.C.C.C.C.C.C.C.C.C.C.C.C.C.C.C.C.",
"C.C.C.C.C.C.C.C.C.C.C.C.C.C.C.C.C.V.V.V.V.V.V.V.V.V.V.V.V.V.V.V.V.V.V.V.V.V.V.V.V.V.V.V.V.V.V.C.C.C.C.C.C.C.C.C.C.C.C.C.C.C.C.C.",
"C.C.C.C.C.C.C.C.C.C.C.C.C.C.C.C.V.V.V.V.V.V.V.V.V.V.V.V.V.V.V.V.V.V.B.B.N.m.n.x.z.j.g.z.V.V.V.C.C.C.C.C.C.C.C.C.C.C.C.C.C.C.C.C.",
"C.C.C.C.C.C.C.C.C.C.C.C.C.C.C.V.V.V.B.n.n.x.j.g.p.r.9.2.;.%.{ / L K S z A k h k v A z g p.V.V.V.C.C.C.C.C.C.C.C.C.C.C.C.C.C.C.C.",
"C.C.C.C.C.C.C.C.C.C.C.C.C.C.C.V.V.B.[ j j k k x D K ^ / { %.&.2.9.r.t.g.z.z.n.m.N.N.B.2.g l.V.V.V.C.C.C.C.C.C.C.C.C.C.C.C.C.C.C.",
"C.C.C.C.C.C.C.C.C.C.C.C.C.C.V.V.V.9.0 g.n.n.M.M.B.V.V.V.V.V.V.V.V.V.V.V.V.V.V.V.V.V.V.V.&.h x.V.V.V.C.C.C.C.C.C.C.C.C.C.C.C.C.C.",
"C.C.C.C.C.C.C.C.C.C.C.C.C.V.V.V.l.t r.V.V.V.V.V.V.V.V.V.V.V.V.V.V.V.V.V.V.V.V.V.V.V.V.V.B.] A m.V.V.V.C.C.C.C.C.C.C.C.C.C.C.C.C.",
"C.C.C.C.C.C.C.C.C.C.C.C.V.V.V.N.x { V.V.V.V.V.V.V.V.V.V.V.V.V.V.V.V.V.V.V.V.V.V.V.V.V.V.V.B.L J M.V.V.V.C.C.C.C.C.C.C.C.C.C.C.C.",
"C.C.C.C.C.C.C.C.C.C.C.C.V.V.V.%.k M.V.V.V.V.V.V.V.V.V.V.V.V.V.V.V.V.V.V.V.V.V.V.V.V.V.V.V.V.M.S ' B.V.V.V.C.C.C.C.C.C.C.C.C.C.C.",
"C.C.C.C.C.C.C.C.C.C.C.V.V.V.i.0 j.V.V.V.V.V.V.V.V.V.V.V.V.V.V.V.V.V.V.V.V.V.V.V.V.V.V.V.V.V.V.n.M $.V.V.V.V.C.C.C.C.C.C.C.C.C.C.",
"C.C.C.C.C.C.C.C.C.C.V.V.V.n.j 1.V.V.V.V.V.V.V.V.V.V.V.V.V.V.V.V.V.V.V.V.V.V.V.V.V.V.V.V.V.V.V.V.z.g ;.V.V.V.V.C.C.C.C.C.C.C.C.C.",
"C.C.C.C.C.C.C.C.C.C.V.V.B.^ ^ B.V.V.V.V.V.V.V.V.V.V.V.V.V.V.V.V.V.V.V.V.V.V.V.V.V.V.V.V.V.V.V.V.V.j.g 0.V.V.V.V.C.C.C.C.C.C.C.C.",
"C.C.C.C.C.C.C.C.C.V.V.V.3.0 x.V.V.V.V.V.V.V.V.V.V.V.B.V.V.V.V.V.V.V.V.V.V.V.V.V.V.V.V.V.V.V.V.V.V.V.r.e r.V.V.V.C.C.C.C.C.C.C.C.",
"C.C.C.C.C.C.C.C.V.V.V.l.0 i.V.V.V.V.V.V.V.V.V.V.V.&.z x $.r.n.V.V.V.V.V.V.V.V.V.V.V.V.V.V.V.V.V.V.V.V.q.g g.V.V.V.C.C.C.C.C.C.C.",
"C.C.C.C.C.C.C.V.V.V.N.x { V.V.V.V.V.V.V.V.V.V.V.V./ X   X X 0 9.B.V.V.V.V.V.V.V.V.V.V.V.V.V.V.V.V.V.V.V.2.g z.V.V.V.C.C.C.C.C.C.",
"C.C.C.C.C.C.C.V.V.V.%.l M.V.V.V.V.V.V.V.V.V.V.V.V.&.  X   X   O / M.V.V.V.V.V.V.V.V.V.V.V.V.V.V.V.V.V.V.B.&.h n.V.V.V.C.C.C.C.C.",
"C.C.C.C.C.C.V.V.V.i.t j.V.V.V.V.V.V.V.V.V.V.V.V.V.g./ F 0 O       ^ B.V.V.V.V.V.V.V.V.V.V.V.V.V.V.V.V.V.V.B.Y S m.V.V.V.C.C.C.C.",
"C.C.C.C.C.V.V.V.b.u 2.V.V.V.V.V.V.V.V.V.V.V.V.V.V.V.V.V.n.2.3   . O ;.V.V.V.V.V.V.V.V.V.V.V.V.V.V.V.V.V.V.V.B.I I N.V.V.V.C.C.C.",
"C.C.C.C.C.V.V.B.) ^ B.V.V.V.V.V.V.V.V.V.V.V.V.V.V.V.V.V.V.V.g.9 . . 5 x.V.V.V.V.V.V.V.V.V.V.V.V.V.V.V.V.V.V.V.m.S Y B.V.V.V.C.C.",
"C.C.C.C.V.V.V.3.u v.V.V.V.V.V.V.V.V.V.V.V.V.V.V.V.B.n.B.V.V.V.9.O . o 1.V.V.V.V.n.j.g.j.n.B.V.V.V.V.V.V.V.V.V.V.n.v -.B.V.V.V.C.",
"C.C.C.V.V.V.l.d i.V.V.V.V.V.V.V.V.M.B.V.V.V.V.V.z.F 9 x j.V.V.M.k . . x B.B.r.J 6 % % % 6 S q.M.V.V.V.V.V.V.V.V.V.z.g 2.V.V.V.C.",
"C.C.V.V.V.M.W %.V.V.V.V.V.V.V.V.B.F j ^ p.V.V.B.k       j M.V.V.$.  . e g.J # . . . + + . . O n j.V.V.V.V.V.V.V.V.V.r.g M.V.V.C.",
"C.C.V.V.V.:.B M.V.V.V.V.V.V.V.V.m.9 X X &.V.V.x.> X X X O z.V.V.1.o o O q . . . . O % # + . # + q t.V.V.V.V.V.V.V.V.r.S B.V.V.C.",
"C.V.V.V.i.d l.V.V.V.V.V.V.V.V.V.N.0 X X { V.V.m.0   X   3 n.V.V.&.  o . . . . q $.r.g.t.&.e . + + Y B.V.V.V.V.V.V.V.;.U V.V.V.C.",
"C.V.V.V.( O.V.V.V.V.V.V.V.V.V.V.B.W X X l B.V.V.9.3 O 3 2.V.V.V.K   o o . . K x.V.V.V.V.V.n.U % $.M.V.V.V.V.V.V.V.V.Y ;.V.V.C.C.",
"C.C.V.V.3.~ V.V.V.V.V.V.V.V.V.V.B.>.X X > p.V.V.V.x.t.x.V.V.V.j.2   o . . z M.V.V.V.V.V.V.V.N.j.B.V.V.V.V.V.V.V.V.B.S r.V.V.C.C.",
"C.C.V.V.l.T n.V.V.V.V.V.V.V.V.V.V.z.4 X X j v.V.V.V.V.V.V.V.n.z o . o . & j.V.V.B.j.0.g.B.V.V.V.V.V.V.V.V.V.V.V.V.m.h z.V.V.C.C.",
"C.C.V.V.B.E u.V.V.V.V.V.V.V.V.V.V.V.{ X X X l l.V.V.V.V.V.j.z O . o .   A B.V.V.8.& . % -.V.V.V.V.V.V.V.V.V.V.V.V.j.v N.V.V.C.C.",
"C.C.V.V.V.#.@.V.V.V.V.V.V.V.V.V.V.V.n.l X O X 4 F 2.9.3.^ >     o o o . { V.V.n.q . + . & x.V.V.V.V.V.V.V.V.V.V.V.q.S B.V.V.C.C.",
"C.C.C.V.V.i.E B.V.V.V.V.V.V.V.V.V.V.V.z.T X X X X X O X X   X O o . o   &.V.V.x.& . # . % j.V.V.V.V.V.V.V.V.V.V.V.-.' V.V.V.C.C.",
"C.C.C.V.V.m.T l.V.V.V.V.V.V.V.V.V.V.V.V.n.[ > * o o o o o     o . o o . L V.V.B.K . . . A N.V.V.V.V.V.V.V.V.V.V.V.U ;.V.V.C.C.C.",
"C.C.C.V.V.V._ <.V.V.V.V.V.V.V.V.V.V.V.V.V.V.%.O * * X o > 2 > o   o o . q n.V.V.n.' h Y x.V.V.V.V.V.V.V.V.V.V.V.B.n t.V.V.C.C.C.",
"C.C.C.C.V.V.6.~ V.V.V.V.V.V.V.V.V.V.V.V.V.l.r * * O j 8.z.v.z.2.h O o . o &.V.V.V.V.B.V.V.V.V.z.m.V.V.V.V.V.V.V.n.v z.V.V.C.C.C.",
"C.C.C.C.V.V.c.R b.V.V.V.V.V.V.V.V.V.V.V.B.W * * : { M.V.V.V.V.V.M.$.O o . 2 9.B.V.V.V.V.V.V.r.& h g.B.V.V.V.V.V.j.v N.V.V.C.C.C.",
"C.C.C.C.V.V.B.E u.V.V.V.V.V.V.V.V.V.V.V.f.< * = ` B.V.V.V.V.V.V.V.B.' @ o . % ' l.N.B.B.z.$.& + . & j.V.V.V.V.V.q.S V.V.V.C.C.C.",
"C.C.C.C.V.V.V.:.@.V.V.V.V.V.V.V.V.V.V.V.[ * = r v.V.V.B.u.%.e.B.V.V.x.6 . . . . & e S c & + + + # *.B.V.V.V.V.V.-.] V.V.V.C.C.C.",
"C.C.C.C.C.V.V.f.E M.V.V.V.V.V.V.V.V.V.B.B ; ; ( V.V.V.{ : @ $ { V.V.V.L + @ # + + + + + + # + % $.N.V.V.V.V.V.V.I 4.V.V.C.C.C.C.",
"C.C.C.C.C.V.V.m.T k.V.V.V.V.V.V.V.V.V.M.s ; ; >.V.V.v.8 = = = 7 x.V.V.1.@ @ $ 2 + + + + # % S t.V.V.V.V.V.V.V.N.n t.V.V.C.C.C.C.",
"C.C.C.C.C.V.V.V. .<.V.V.V.V.V.V.V.V.V.M.s ; ; 5.V.V.c.8 = - = 7 z.V.V.1.@ @ a p.4.] ' ] 2.j.B.V.V.V.V.V.V.V.V.n.v x.V.V.C.C.C.C.",
"C.C.C.C.C.C.V.V.y.~ B.V.V.V.V.V.V.V.V.B.C ; ; ` V.V.B.` - = = ) B.V.V.[ @ @ c N.V.V.V.V.V.V.V.V.V.V.V.V.V.V.V.h.n N.V.V.C.C.C.C.",
"C.C.C.C.C.C.V.V.b.T v.V.V.V.V.V.V.V.V.V.+.; ; s M.V.V.N.7.( 7.M.V.V.m.a @ @ ) V.V.V.V.V.V.V.V.V.V.V.V.V.V.V.V.0.I V.V.V.C.C.C.C.",
"C.C.C.C.C.C.V.V.B.Q y.V.V.V.V.V.V.V.V.V.s.< s 5.B.V.V.V.V.V.V.V.V.V.=.- - , e.V.V.V.V.V.V.V.V.V.V.V.V.V.V.V.V.*.*.V.V.V.C.C.C.C.",
"C.C.C.C.C.C.V.V.V.:.+.V.V.V.V.V.V.V.V.V.N.6.b.V.V.V.V.V.V.V.V.V.B.6.1 - - Z N.V.V.V.V.V.V.V.V.V.V.V.V.V.V.V.B.P 0.V.V.C.C.C.C.C.",
"C.C.C.C.C.C.C.V.V.f.R N.V.V.V.V.V.V.V.V.V.V.V.V.V.V.V.V.V.V.B.d.( < - - 7 p.V.V.V.V.V.V.V.V.V.V.V.V.V.V.V.V.N.n h.V.V.C.C.C.C.C.",
"C.C.C.C.C.C.C.V.V.M.R k.V.V.V.V.V.V.V.V.V.V.V.V.V.V.V.V.V.V.k.i - - - 1 4.V.V.V.V.V.V.V.V.V.V.V.V.V.V.V.V.V.l.c n.V.V.C.C.C.C.C.",
"C.C.C.C.C.C.C.V.V.V...:.V.V.V.V.V.V.V.V.V.V.V.V.V.V.V.V.V.V.b.p - - p w.B.V.V.V.V.V.V.V.V.V.V.V.V.V.V.V.N.4.c Y B.V.V.C.C.C.C.C.",
"C.C.C.C.C.C.C.C.V.V.y.Q B.V.V.V.V.V.V.V.V.V.V.V.V.V.V.V.V.V.B.Q p o.z.V.V.V.V.V.V.V.V.V.V.V.V.V.V.V.B.r.G G e.B.V.V.V.C.C.C.C.C.",
"C.C.C.C.C.C.C.C.V.V.b.d @.k.B.V.V.V.V.V.V.V.V.V.V.V.V.V.V.V.V.c.m.V.V.V.V.V.V.V.V.V.V.V.V.V.V.V.B.h.H b 4.N.V.V.V.V.C.C.C.C.C.C.",
"C.C.C.C.C.C.C.C.V.V.V.k.@.f ~ u.M.V.V.V.V.V.V.V.V.V.V.V.V.V.V.V.V.V.V.V.V.V.V.V.V.V.V.V.V.V.B.z.| V -.m.V.V.V.V.V.C.C.C.C.C.C.C.",
"C.C.C.C.C.C.C.C.V.V.V.V.V.b.5.E R :.c.V.V.V.V.V.V.V.V.V.V.V.V.V.V.V.V.V.V.V.V.V.V.V.V.V.V.v.,.V X.z.V.V.V.V.V.C.C.C.C.C.C.C.C.C.",
"C.C.C.C.C.C.C.C.C.C.V.V.V.V.V.N.s._ f  .s.B.V.V.V.V.V.V.V.V.V.V.V.V.V.V.V.V.V.V.V.V.V.M.7.V } l.B.V.V.V.V.C.C.C.C.C.C.C.C.C.C.C.",
"C.C.C.C.C.C.C.C.C.C.C.C.V.V.V.V.V.V.z.,.R E 5.b.V.V.V.V.V.V.V.V.V.V.V.V.V.V.V.V.V.N.w.Z ! d.B.V.V.V.V.C.C.C.C.C.C.C.C.C.C.C.C.C.",
"C.C.C.C.C.C.C.C.C.C.C.C.C.C.V.V.V.V.V.V.M.y.~ C o.f.B.V.V.V.V.V.V.V.V.V.V.V.V.B.s.! Z w.B.V.V.V.V.C.C.C.C.C.C.C.C.C.C.C.C.C.C.C.",
"C.C.C.C.C.C.C.C.C.C.C.C.C.C.C.C.C.V.V.V.V.V.B.l.#.C Q w.M.V.V.V.V.V.V.V.V.V.k.} C 7.M.V.V.V.V.C.C.C.C.C.C.C.C.C.C.C.C.C.C.C.C.C.",
"C.C.C.C.C.C.C.C.C.C.C.C.C.C.C.C.C.C.C.V.V.V.V.V.V.b.6.Q R ,.l.B.V.V.V.V.c.o.V ,.n.V.V.V.V.V.C.C.C.C.C.C.C.C.C.C.C.C.C.C.C.C.C.C.",
"C.C.C.C.C.C.C.C.C.C.C.C.C.C.C.C.C.C.C.C.C.C.V.V.V.V.V.B.f...C } a.N.b.,.f o.c.V.V.V.V.V.C.C.C.C.C.C.C.C.C.C.C.C.C.C.C.C.C.C.C.C.",
"C.C.C.C.C.C.C.C.C.C.C.C.C.C.C.C.C.C.C.C.C.C.C.C.V.V.V.V.V.V.b.<.E Z C } k.B.V.V.V.V.C.C.C.C.C.C.C.C.C.C.C.C.C.C.C.C.C.C.C.C.C.C.",
"C.C.C.C.C.C.C.C.C.C.C.C.C.C.C.C.C.C.C.C.C.C.C.C.C.C.V.V.V.V.V.V.N.s.s.B.V.V.V.V.C.C.C.C.C.C.C.C.C.C.C.C.C.C.C.C.C.C.C.C.C.C.C.C.",
"C.C.C.C.C.C.C.C.C.C.C.C.C.C.C.C.C.C.C.C.C.C.C.C.C.C.C.C.C.V.V.V.V.V.V.V.V.V.C.C.C.C.C.C.C.C.C.C.C.C.C.C.C.C.C.C.C.C.C.C.C.C.C.C.",
"C.C.C.C.C.C.C.C.C.C.C.C.C.C.C.C.C.C.C.C.C.C.C.C.C.C.C.C.C.C.C.V.V.V.V.V.V.C.C.C.C.C.C.C.C.C.C.C.C.C.C.C.C.C.C.C.C.C.C.C.C.C.C.C.",
"C.C.C.C.C.C.C.C.C.C.C.C.C.C.C.C.C.C.C.C.C.C.C.C.C.C.C.C.C.C.C.C.C.C.V.C.C.C.C.C.C.C.C.C.C.C.C.C.C.C.C.C.C.C.C.C.C.C.C.C.C.C.C.C.",
"C.C.C.C.C.C.C.C.C.C.C.C.C.C.C.C.C.C.C.C.C.C.C.C.C.C.C.C.C.C.C.C.C.C.C.C.C.C.C.C.C.C.C.C.C.C.C.C.C.C.C.C.C.C.C.C.C.C.C.C.C.C.C.C."
};
